<svg width="29" height="29" viewBox="0 0 29 29" fill="none" xmlns="http://www.w3.org/2000/svg">
<g clip-path="url(#clip0_43_5220)">
<path d="M28.4307 14.3401C28.4307 6.6081 22.1626 0.340088 14.4307 0.340088C6.69868 0.340088 0.430664 6.6081 0.430664 14.3401C0.430664 22.0721 6.69868 28.3401 14.4307 28.3401C22.1626 28.3401 28.4307 22.0721 28.4307 14.3401Z" fill="#F2F2F2"/>
<path d="M11.5147 14.3401C11.5147 12.7293 12.8202 11.4232 14.4309 11.4232C16.0417 11.4232 17.3478 12.7293 17.3478 14.3401C17.3478 15.9508 16.0417 17.257 14.4309 17.257C12.8202 17.257 11.5147 15.9508 11.5147 14.3401ZM9.9379 14.3401C9.9379 16.8216 11.9494 18.8331 14.4309 18.8331C16.9124 18.8331 18.9239 16.8216 18.9239 14.3401C18.9239 11.8586 16.9124 9.84708 14.4309 9.84708C11.9494 9.84708 9.9379 11.8586 9.9379 14.3401ZM18.0518 9.66893C18.0517 9.8766 18.1132 10.0796 18.2285 10.2523C18.3439 10.425 18.5078 10.5597 18.6996 10.6392C18.8914 10.7188 19.1025 10.7397 19.3062 10.6993C19.5099 10.6588 19.6971 10.5589 19.844 10.4121C19.9909 10.2653 20.0909 10.0783 20.1315 9.87461C20.1721 9.67091 20.1514 9.4598 20.072 9.26789C19.9926 9.07603 19.8581 8.912 19.6855 8.79655C19.5129 8.68111 19.3099 8.6194 19.1022 8.61934C18.8239 8.61945 18.5565 8.73005 18.3596 8.92687C18.1627 9.12369 18.052 9.39056 18.0518 9.66893ZM10.8959 21.4624C10.0428 21.4235 9.57915 21.2814 9.27098 21.1614C8.86247 21.0023 8.57098 20.8129 8.26455 20.5069C7.95807 20.2008 7.76837 19.9096 7.61005 19.5011C7.48994 19.1931 7.34784 18.7293 7.30905 17.8762C7.26664 16.9539 7.25813 16.6768 7.25813 14.3401C7.25813 12.0035 7.26734 11.7272 7.30905 10.8041C7.3479 9.95103 7.49105 9.4881 7.61005 9.17922C7.76907 8.77065 7.95848 8.47922 8.26455 8.17274C8.57057 7.86625 8.86177 7.67655 9.27098 7.51824C9.57897 7.39813 10.0428 7.25603 10.8959 7.21724C11.8182 7.17483 12.0953 7.16637 14.4309 7.16637C16.7665 7.16637 17.0439 7.17553 17.967 7.21724C18.82 7.25609 19.283 7.39924 19.5919 7.51824C20.0004 7.67655 20.2919 7.86672 20.5983 8.17274C20.9048 8.47875 21.0938 8.77065 21.2528 9.17922C21.3729 9.48722 21.515 9.95103 21.5538 10.8041C21.5962 11.7272 21.6047 12.0035 21.6047 14.3401C21.6047 16.6768 21.5962 16.9531 21.5538 17.8762C21.515 18.7293 21.3722 19.193 21.2528 19.5011C21.0938 19.9096 20.9044 20.2011 20.5983 20.5069C20.2923 20.8126 20.0004 21.0023 19.5919 21.1614C19.2839 21.2815 18.82 21.4236 17.967 21.4624C17.0447 21.5048 16.7676 21.5133 14.4309 21.5133C12.0943 21.5133 11.8179 21.5048 10.8959 21.4624ZM10.8235 5.64308C9.89199 5.6855 9.25546 5.8332 8.6996 6.0495C8.12391 6.27288 7.63659 6.57254 7.14957 7.05875C6.6626 7.54495 6.3637 8.03309 6.14032 8.60878C5.92402 9.16499 5.77632 9.80117 5.7339 10.7326C5.69078 11.6656 5.68091 11.9639 5.68091 14.3401C5.68091 16.7163 5.69078 17.0146 5.7339 17.9475C5.77632 18.8791 5.92402 19.5152 6.14032 20.0714C6.3637 20.6467 6.66266 21.1354 7.14957 21.6214C7.63648 22.1074 8.12391 22.4067 8.6996 22.6307C9.25651 22.847 9.89199 22.9947 10.8235 23.0371C11.7569 23.0795 12.0547 23.0901 14.4309 23.0901C16.8071 23.0901 17.1054 23.0802 18.0384 23.0371C18.9699 22.9947 19.606 22.847 20.1622 22.6307C20.7376 22.4067 21.2252 22.1076 21.7123 21.6214C22.1992 21.1352 22.4975 20.6467 22.7215 20.0714C22.9378 19.5152 23.0862 18.879 23.1279 17.9475C23.1704 17.0139 23.1802 16.7163 23.1802 14.3401C23.1802 11.9639 23.1704 11.6656 23.1279 10.7326C23.0855 9.80105 22.9378 9.16464 22.7215 8.60878C22.4975 8.03344 22.1985 7.54577 21.7123 7.05875C21.226 6.57178 20.7376 6.27288 20.1629 6.0495C19.606 5.8332 18.9698 5.6848 18.0391 5.64308C17.1061 5.60066 16.8078 5.59009 14.4316 5.59009C12.0554 5.59009 11.7569 5.59996 10.8235 5.64308Z" fill="#265547"/>
</g>
<defs>
<clipPath id="clip0_43_5220">
<rect width="28" height="28" fill="white" transform="translate(0.430664 0.340088)"/>
</clipPath>
</defs>
</svg>
